PathFileType	3	(X/Y/Z)	C:\Users\koon_\Desktop\
DataRate	CameraRate	NumFrames	NumMarkers	Units	OrigDataRate	OrigDataStartFrame	OrigNumFrames
100.0	100.0	10	27	mm	100.0	1	3589	
Frame#	Time	get:LFHD			get:RFHD			get:LBHD			get:RBHD			get:C7			get:T10			get:CLAV			get:STRN			get:RBAK			get:LSHO			get:LUPA			get:LELB			get:LFRA			get:LWRA			get:LWRB			get:LFIN			get:RSHO			get:RUPA			get:RELB			get:RFRA			get:RWRA			get:RWRB			get:RFIN			get:LASI			get:RASI			get:LPSI			get:RPSI			
		X1	Y1	Z1	X2	Y2	Z2	X3	Y3	Z3	X4	Y4	Z4	X5	Y5	Z5	X6	Y6	Z6	X7	Y7	Z7	X8	Y8	Z8	X9	Y9	Z9	X10	Y10	Z10	X11	Y11	Z11	X12	Y12	Z12	X13	Y13	Z13	X14	Y14	Z14	X15	Y15	Z15	X16	Y16	Z16	X17	Y17	Z17	X18	Y18	Z18	X19	Y19	Z19	X20	Y20	Z20	X21	Y21	Z21	X22	Y22	Z22	X23	Y23	Z23	X24	Y24	Z24	X25	Y25	Z25	X26	Y26	Z26	X27	Y27	Z27	
1	0	64.712196	1532.8645	-35.31625	-80.75296	1534.873	-59.086147	83.958664	1525.0283	-171.51773	-66.527855	1522.114	-191.40239	2.1534882	1321.6584	-234.60339	9.5762777	1108.7278	-274.48691	7.9251518	1237.3416	-45.906239	4.0456419	1082.6549	-5.8482814	-92.404373	1250.8595	-261.28238	168.60936	1324.475	-166.40347	229.52824	1112.8817	-110.72309	237.30751	995.24213	-172.10329	253.3972	943.71979	-93.017128	248.83392	774.78455	-48.001091	291.83487	776.7168	-109.76021	308.66931	710.05219	-71.417534	-136.03242	1330.8411	-137.46675	-216.35371	1211.493	-119.86062	-248.32034	995.00659	-166.33643	-255.31281	870.84167	-61.443954	-263.21936	774.25909	-38.87772	-306.09158	787.93073	-99.31282	-317.5603	716.83545	-39.058685	137.97241	886.81531	-74.123672	-157.42087	906.78888	-86.088341	52.888763	923.37299	-262.94507	-35.092117	922.09949	-270.73813
2	0.01	64.732246	1532.8492	-35.376427	-80.744217	1534.8838	-59.118477	83.976402	1525.0414	-171.5311	-66.488869	1522.1536	-191.53511	2.1528473	1321.6453	-234.68103	9.5768118	1108.7211	-274.53015	7.8707628	1237.3156	-45.917267	4.0450168	1082.7039	-5.9214091	-92.392265	1250.8682	-261.36429	168.61685	1324.4838	-166.45407	229.55797	1112.886	-110.80449	237.32686	995.23712	-172.17444	253.44157	943.72687	-93.080864	248.87088	774.81158	-48.062008	291.88757	776.71155	-109.8215	308.74622	710.05115	-71.456825	-136.00693	1330.8542	-137.57474	-216.33557	1211.4987	-119.91759	-248.30963	995.01404	-166.34506	-255.2934	870.84479	-61.509689	-263.20428	774.23877	-38.865845	-306.09622	787.93591	-99.366638	-317.55228	716.81909	-39.068016	137.96291	886.82452	-74.187988	-157.38237	906.77051	-86.150551	52.889824	923.38098	-262.98834	-35.087654	922.11755	-270.83502
3	0.02	64.735268	1532.8329	-35.376617	-80.751221	1534.8922	-59.219082	83.994774	1525.061	-171.60164	-66.484276	1522.1431	-191.46745	2.2121041	1321.7032	-234.85274	9.6335974	1108.7588	-274.68396	7.2593765	1237.3151	-45.92976	4.037302	1082.7205	-5.9291983	-92.375427	1250.8589	-261.4007	168.64243	1324.4939	-166.52679	229.57991	1112.91	-110.83518	237.37572	995.25775	-172.21031	253.46597	943.74042	-93.130775	248.92526	774.82043	-48.095642	291.93832	776.72968	-109.85349	308.7767	710.07367	-71.512741	-136.06445	1330.4253	-136.49178	-216.33122	1211.5302	-119.89455	-248.30222	995.01709	-166.40822	-255.29251	870.85089	-61.575073	-263.22086	774.27655	-38.933834	-306.09973	787.95624	-99.387367	-317.55142	716.87335	-39.152977	137.96078	886.81268	-74.218758	-157.379	906.81531	-86.148178	52.940468	923.39691	-263.05719	-35.055138	922.12897	-270.90701
4	0.03	64.724846	1532.8538	-35.465988	-80.739433	1534.901	-59.291603	84.046371	1525.0754	-171.63242	-66.453796	1522.1597	-191.55817	2.182734	1321.6544	-234.77036	9.652503	1108.7614	-274.68253	7.2563291	1237.3157	-46.020996	4.0439892	1082.7496	-6.0034347	-92.386284	1250.8564	-261.44714	168.62511	1324.4824	-166.57945	229.60443	1112.9176	-110.90004	237.39873	995.26508	-172.27646	253.50677	943.74976	-93.176071	248.93745	774.84344	-48.16053	291.97821	776.75659	-109.91929	308.84778	710.112	-71.605423	-136.05287	1330.4108	-136.53511	-216.31427	1211.5359	-119.95232	-248.28629	995.04053	-166.50943	-255.30624	870.85681	-61.641903	-263.21521	774.2735	-38.99231	-306.07275	787.96735	-99.470009	-317.56705	716.8728	-39.151131	137.93727	886.82196	-74.260117	-157.41762	906.80652	-86.255463	52.940468	923.39691	-263.05719	-35.028408	922.14825	-270.95328
5	0.04	64.748322	1532.8531	-35.490482	-80.676102	1534.8921	-59.333996	84.053528	1525.0774	-171.68248	-66.452744	1522.2052	-191.70738	2.2056947	1321.6565	-234.82242	9.6372499	1108.7657	-274.76337	7.276329	1237.3159	-46.019257	4.0602765	1082.7649	-6.0241985	-92.372246	1250.8896	-261.55527	168.64871	1324.4917	-166.61487	229.65109	1112.9557	-110.96889	237.44945	995.27203	-172.30066	253.54176	943.78644	-93.242821	249.02798	774.85785	-48.174816	292.03232	776.76288	-109.93822	308.89038	710.10181	-71.639175	-135.99263	1330.8148	-137.49837	-216.29022	1211.5225	-119.94364	-248.32541	995.03809	-166.52821	-255.32198	870.85864	-61.642487	-263.23428	774.27448	-39.021893	-306.05524	787.96893	-99.524879	-317.52844	716.84784	-39.194859	137.95784	886.82715	-74.30838	-157.39952	906.83594	-86.306137	52.942417	923.39697	-263.15112	-35.024456	922.16071	-271.03973
6	0.05	64.745476	1532.8207	-35.547977	-80.67215	1534.9081	-59.437359	84.08725	1525.092	-171.72781	-66.407021	1522.2119	-191.73534	2.2294948	1321.6613	-234.84737	9.6544704	1108.7452	-274.74631	7.3025599	1237.3452	-46.081463	4.0151501	1082.7582	-6.0977793	-92.331535	1250.8933	-261.63898	168.63957	1324.4902	-166.68442	229.66071	1112.9523	-110.97511	237.47275	995.27972	-172.36377	253.59457	943.78113	-93.298462	249.07196	774.86426	-48.242252	292.06232	776.78955	-110.02531	308.92673	710.10028	-71.705635	-136.03589	1330.4672	-136.70184	-216.29861	1211.5432	-120.02601	-248.28976	995.06024	-166.60287	-255.33542	870.89832	-61.726112	-263.21008	774.26917	-39.089924	-306.05737	787.97168	-99.607765	-317.47882	716.83002	-39.109406	137.96616	886.85803	-74.335068	-157.21768	907.29712	-86.476349	52.995281	923.41345	-263.21939	-34.97649	922.16553	-271.0946
7	0.06	64.783325	1532.809	-35.573944	-80.651093	1534.9001	-59.465881	84.094093	1525.1069	-171.78011	-66.398354	1522.2405	-191.80324	2.2316358	1321.6609	-234.95029	9.670784	1108.7554	-274.85254	7.3005433	1237.3247	-45.975143	4.0125384	1082.7815	-6.0794835	-92.312347	1250.8942	-261.65668	168.64999	1324.496	-166.73663	229.68629	1112.9452	-111.0533	237.48456	995.29486	-172.3997	253.62187	943.80615	-93.351997	249.09912	774.875	-48.269478	292.10199	776.80627	-110.03149	308.94806	710.11066	-71.778755	-136.01309	1330.4836	-136.77229	-216.26099	1211.567	-120.14468	-248.28224	995.06781	-166.68694	-255.31306	870.90399	-61.792526	-263.25494	774.31555	-39.166393	-306.03046	787.98975	-99.646088	-317.44196	716.87054	-39.129601	137.96646	886.8418	-74.401711	-157.39388	906.91211	-86.346588	53.002422	923.39703	-263.21786	-34.977913	922.1593	-271.08206
8	0.07	64.786072	1532.8138	-35.657993	-80.591782	1534.9178	-59.509529	84.101585	1525.1191	-171.83215	-66.429764	1522.243	-191.75821	2.2305734	1321.6277	-234.98198	9.6540728	1108.7246	-274.8631	7.2959471	1237.3704	-46.174362	4.0642257	1082.8127	-6.1274972	-92.328026	1250.8727	-261.7037	168.66034	1324.4932	-166.81483	229.72054	1112.9575	-111.1225	237.49808	995.28772	-172.45061	253.64063	943.80408	-93.377388	249.15427	774.89514	-48.340256	292.13611	776.81104	-110.08489	308.98425	710.11194	-71.824715	-136.0231	1330.5128	-136.8195	-216.23384	1211.5464	-120.09552	-248.27354	995.08368	-166.70151	-255.3277	870.935	-61.839039	-263.23346	774.29535	-39.226784	-306.00226	788.0202	-99.746124	-317.46152	716.87329	-39.297783	137.97449	886.85803	-74.415306	-157.37691	906.89526	-86.404373	53.003819	923.40399	-263.26532	-34.975674	922.15466	-271.16586
9	0.08	64.793282	1532.8276	-35.694839	-80.565598	1534.9351	-59.579113	84.153549	1525.1211	-171.85712	-66.392677	1522.2466	-191.79233	2.232738	1321.6322	-235.02841	9.6900873	1108.687	-274.86469	7.3214374	1237.3873	-46.246948	4.0256371	1082.792	-6.1731181	-92.312294	1250.8973	-261.79294	168.66104	1324.4828	-166.84088	229.71718	1112.9404	-111.13165	237.5246	995.29651	-172.51801	253.64772	943.78992	-93.448006	249.1778	774.89148	-48.362579	292.17792	776.81378	-110.11694	309.00113	710.11682	-71.897385	-136.02693	1330.5431	-136.93288	-216.21259	1211.5629	-120.1321	-248.28203	995.07568	-166.78767	-255.30821	870.95386	-61.907841	-263.23444	774.31256	-39.357403	-305.97867	788.02429	-99.821587	-317.44669	716.86786	-39.320232	137.98613	886.86975	-74.436676	-157.35431	906.90173	-86.462059	53.056305	923.42053	-263.33386	-34.967541	922.1731	-271.22336
10	0.09	64.826218	1532.8489	-35.759476	-80.564247	1534.9299	-59.636856	84.154724	1525.1232	-171.94336	-66.360558	1522.2703	-191.90681	2.2820182	1321.6282	-235.0984	9.7198458	1108.6931	-274.94205	7.3438778	1237.3892	-46.302593	4.0463104	1082.7926	-6.207129	-92.300911	1250.8831	-261.88187	168.68901	1324.4725	-166.89037	229.7386	1112.9374	-111.18913	237.5576	995.2887	-172.53282	253.67453	943.78784	-93.488113	249.19975	774.87305	-48.441166	292.1835	776.81628	-110.17708	309.03473	710.10712	-71.924934	-135.99681	1330.5516	-136.97592	-216.19711	1211.5758	-120.2206	-248.25681	995.07983	-166.84981	-255.32037	870.96198	-61.971119	-263.24142	774.35211	-39.400734	-305.94479	788.05487	-99.907326	-317.43085	716.85675	-39.226406	138.0119	886.88202	-74.478188	-157.38503	906.92944	-86.514473	53.056637	923.42029	-263.33347	-34.921291	922.16486	-271.23254
